<?xml version="1.0" encoding="UTF-8"?>
<svg id="Layer_1" data-name="Layer 1" xmlns="http://www.w3.org/2000/svg" viewBox="0 0 634.5 606">
  <defs>
    <style>
      .cls-1 {
        fill: #c53831;
      }

      .cls-2 {
        fill: #fcfbfb;
      }

      .cls-3 {
        fill: #c43932;
      }

      .cls-4 {
        fill: #f8f8f9;
      }
    </style>
  </defs>
  <g>
    <g>
      <path class="cls-3" d="M453.5,485.5c-.89-.18-1.22.47-1.76.99-1.94,1.84-3.85,4.78-5.73,6.77-6.79,7.24-16.3,15.88-25.18,20.32-26.11,13.06-19.53-17.92-14.71-32.21,3.78-11.21,9.38-22.42,14.36-33.14.56-1.93-3.56.28-4,.51-10.59,5.53-25.2,29.65-31.08,40.42-3.4,6.22-7.18,16.78-11.01,21.99-2.13,2.9-3.54,3.18-6.9,2.08-4.9-1.62-12.28-7.08-12.97-12.53-.71-5.62,3.6-9.48,4.45-14.71-7.65,5.61-14.71,12.11-23.16,16.59-19.73,10.47-43.73,13.69-45.86-15.32-1.16-15.89,8.64-39.41,17.61-52.43,7.97-11.57,24.96-29.59,40.18-28.36,3.3.27,5.98,2.14,8.52,2.49,3.16.44,6.79-.99,10.74-.25,5.41,1.02,9.95,6.2,8.86,11.9-.71,3.74-11.83,17.01-14.79,21.21-2.07,2.94-7.66,13.24-10.22,14.28-7.25,2.94-11.97-6.99-11.89-12.85.07-4.54,3.59-9.15-4.62-6.16-13.04,4.75-23.87,25.4-24.86,38.64-3.02,40.51,35.99,8.67,48.51-3.99,18.25-18.47,33.68-41.11,44.08-64.92,5.8-13.27,12.03-28.43,7.29-42.97-1.18-3.63-4.9-7.03-1.04-9.78,8.69-6.22,25.22-7.07,29.55,4.78,6.82,18.67-14.08,51.14-23.68,67.1-5.11,8.48-10.85,16.63-15.79,25.21-1.21,2.09-6.87,11.39-6.38,13.03.13.42.69.92,1.2.81.64-.14,5.55-7.64,6.56-8.94,7.64-9.83,17.13-20.39,26.96-28.04,2.63-2.05,6.16-5.15,9.49-5.52,11.55-1.27,25.39,8.27,16.96,20.46-9.13,13.21-28.51,28.08-33.45,43.55-1.57,4.92-2.11,12.42,5.45,9.44,7.11-2.81,25.15-22.38,30.56-28.94,7-8.49,10.08-18.1,15.73-27.27,10.42-16.92,30.44-38.66,52.28-36.76,12.34,1.08,16.8,12.87,12.48,23.51-3.54,8.72-7.66,4.47-14.47,3.98-22.17-1.58-37.03,16.54-45.7,34.84-2.67,5.63-7.49,19.01-7.59,24.96-.07,4.43,3.52,5.63,7.09,3.54,11.57-6.78,26.16-35.04,30.8-47.7,1.14-3.1,2.34-11.07,5.25-12.25,4.82-1.94,20.46.65,21.36,6.91.63,4.38-6.27,12.26-8.69,16.25-3.39,5.59-11.95,19.73-12.27,25.78-.27,5.19,4.57,5.83,8.49,3.95,9.05-4.33,10.51-18.85,14.1-27.9,3.23-8.16,7.53-16.38,12.18-23.82s14.53-22.89,24.46-23.08c7.32-.14,17.63,7.58,13.95,15.49-1.35,2.9-8.86,9.54-11.45,12.55-6.75,7.82-13.06,16.22-18.45,25.05-5.21,8.52-11.09,18.41-12.04,28.46,7.72-10.24,14.36-21.24,21.84-31.66,8.97-12.49,19.36-26.45,31.17-36.33,7.39-6.17,13.31-11.66,23.37-7.39,14.44,6.13,2.45,16.3-2.74,24.02-12.54,18.64-29.88,48.22-16.6,70.32,2.8,4.66,9.02,9.34.71,13.29-13.17,6.26-29.72-.86-31.02-15.98-2.11-24.57,16.74-47.05,30.02-65.76-3.6.34-6.78,3.02-9.51,5.24-12.44,10.12-25.98,27.72-33.75,41.75-3.26,5.89-5.66,13.12-8.83,18.67-2.61,4.57-4.68,5.23-9.53,3.2-5.85-2.45-12.15-9.37-12.89-15.86-2.21-.32-3.09,1.76-4.53,2.72-4.8,3.19-9.71,5.82-15.71,5.27-6.55-.59-7.53-5.45-10-10.48-9.44,7.25-17.77,19.03-31.24,14.23-4.58-1.63-10.51-8.03-10.51-12.99v-10.25Z"/>
      <g>
        <path class="cls-3" d="M105.52,428.03c-.08.77-.19,1.2.49,1.71.72.54,7.2,1.46,8.99,2.01,31.42,9.54,19.12,42.61.73,58.74-17.12,15.02-51.66,26.39-72.39,13.41-1.87-1.17-5.45-5.37-7.02-4.85-1.99.66-5.38,14.23-10.18,15.34-3.92.91-14.68-4.99-17.14-8.14-2.88-3.68-1.86-6.42-.37-10.36,18.24-37.34,37.82-73.99,56.29-111.21,4.74-9.56,9.15-21.14,14.31-30.19,2.35-4.13,5.51-7.18,10.49-7.51,4.64-.3,7.01,1.66,11.15,2.39,10.5,1.86,19.74-3.88,30.31-2.81,14.17,1.43,21.89,12.67,27.57,24.43,4.74,9.81,5.37,14.77-2,23.52-12.99,15.41-33.38,24.96-51.24,33.52ZM82.5,418.5c14.68-7.1,33.21-16.25,43.75-28.99,13.43-16.23-4.59-20.8-16.59-12.84-7.59,12.91-18.75,25.37-25.87,38.38-.6,1.09-1.44,2.09-1.29,3.46ZM71.85,436.61l-2.77,2.22c-5.99,13.42-17.04,27.08-22.67,40.33-2.12,4.98-.68,5.93,4.32,6.36,16.38,1.38,42.46-14.48,50.35-28.68,7.38-13.27-1.3-17.33-13.4-19.28l-15.83-.95Z"/>
        <path class="cls-3" d="M219.5,492.5c1.06.14,1.63-.85,2.2-1.54,5.51-6.64,11.12-17.17,16.39-24.61,7.34-10.38,15.02-21,23.65-30.35,5.43-5.88,18.53-19.05,26.59-19.45,4.93-.25,14.89,3.76,14.69,9.69-.14,4.26-10.02,15.9-12.84,20.2-11.44,17.45-25.57,44.85-14.09,65.22,3.79,6.73,10.22,11.21-1.62,15.08-17.15,5.6-29.69-6.83-28.42-23.92,1.64-22,17.72-41.15,29.94-58.31-11.4,4.43-20.03,14.42-27.49,23.76-7.92,9.92-14.84,20.65-20.44,32.06-1.62,3.29-4.15,12.37-7.54,13.46-6.89,2.21-18.32-10.09-19.03-16.78-6.61,3.42-15.99,12.13-23.74,6.5-3.2-2.33-3.96-6.59-5.5-8-2.1-1.92-6.22,3.98-8.02,5.49-7.72,6.5-16.91,12.45-26.9,6.42s-7.79-19.58-5.68-29.5c5.91-27.95,35.31-78.79,69.04-74.85,12.29,1.44,16.81,15.31,10.91,25.3-3.54,5.99-7.26,2.88-12.41,2.2-17.03-2.22-29.21,7.79-38.6,20.78-6.47,8.96-15.06,26.88-15.61,37.89-.26,5.1,2.52,7.13,7,4.49,11.54-6.81,25.75-34.89,30.53-47.47,1.03-2.7,2.74-11.05,4.8-12.2,4.71-2.62,21.54.66,22.19,7.24.14,1.42-.72,3.32-1.39,4.56-5.8,10.75-14.64,20.05-18.61,32.39-4.62,14.34,10.2,9.99,13.92,2.92,2.58-4.91,4.37-14.11,6.58-19.92,4.9-12.87,19.71-41.71,32.04-47.96,6.54-3.31,13.66-.62,17.88,5.05,6.25,8.4-2.75,13.54-7.67,19.16-9.35,10.69-18.05,22.15-24.83,34.67-1.45,2.69-9.5,18.46-7.91,20.33Z"/>
      </g>
    </g>
    <path class="cls-4" d="M132.87,552.62c15.48-2.63,17.72,19.16,3.31,20.34-13.66,1.11-15.03-18.35-3.31-20.34ZM133.87,555.11c-8.45,1.45-7.5,15.79,1.76,15.27,10.43-.59,8.67-17.06-1.76-15.27Z"/>
    <path class="cls-4" d="M523,571.75c-.37,1.16-2.57,1.71-2.99-.52-.34-1.86.3-17.95.99-18.74.73-.84.95.43,1.14.64,1.53,1.7,9.05,11.77,9.86,12.11.54.23,1-.38,1-.5v-11c0-.98,3-1.82,3-.5v19c0,.14-.57.51-.76.75l-1.18-.06-11.06-13.93c-.62,3.15.83,10.13,0,12.75Z"/>
    <path class="cls-4" d="M175,572.49c-5.45,2.44-6.11-9.14-11.18-7.43-1.64.55-.43,5.79-.87,7.38-.84.48-2.18.45-2.71-.44-.43-.72-.46-14.96-.25-16.76.09-.77.31-2.09,1-2.5.81-.48,6.46-.37,7.64-.13,3.04.62,5.3,4.07,4.85,7.1-.35,2.34-3.32,3.85-3,6.01.15.99,4.86,6.45,4.52,6.77ZM163.57,555.07c-.42,2.96-1.9,7.85,2.62,7.4,7.36-.73,4.23-9.42-2.62-7.4Z"/>
    <path class="cls-4" d="M308,572.49c-5.6,1.76-5.6-8.9-11.5-7.5.98,1.67-.83,11.32-2.74,7-.47-1.05-.53-15.39-.28-17.27.22-1.66.62-2.03,2.25-2.25,3.61-.48,7.86-.23,10,3.05,3.54,5.42-2.28,5.99-1.72,10.18.3,2.24,3.41,4.47,3.99,6.79ZM302.87,556.13c-.91-.97-5.35-1.8-6.15-.66-.46.65-.44,6.33.25,6.81,2.7,1.9,9.35-2.47,5.9-6.15Z"/>
    <path class="cls-4" d="M461.5,554.25c.58-2.77,7.5-1.96,9.62-1.12,1.35.54,3.38,2.32,3.76,3.74,1.3,4.85-5.26,4.54-1.58,11.09.78,1.39,4.74,5.16,1.81,4.71-4.97-.76-5.28-9.11-9.78-7.6-2.21.74,1.33,10.16-3.82,6.68.72-5.03-.97-12.84,0-17.5ZM470.88,561.38c.84-.84.92-4.19.16-5.18-.96-1.26-4.48-1.39-5.97-1.13-.64,1.47-1.08,5.52-.12,6.73,1.03,1.3,5.04.48,5.93-.41Z"/>
    <path class="cls-4" d="M246,552c.88-.17,1.23.45,1.76.99,3.7,3.82,6.58,9.26,10.49,13.01,1.59-3.72-.63-8.94.75-12.24.59-1.41,1.92-2.01,2.41-.42.44,1.41.21,8.94.1,10.94-.15,2.78-.83,5.91-1.03,8.73-4.16-3.28-6.88-9.04-10.59-12.66-.44-.43-.41-1.09-1.41-.84v7.25c0,.41-1.27,5.57-1.51,5.75-.11.08-.68-.04-.99,0v-20.5Z"/>
    <path class="cls-4" d="M443.5,553.75c.39-2.45,3-.61,3,0v11c0,.4-1,3.69-1.29,4.21-2.93,5.3-11.93,5.41-14.81-.11-1.39-2.66-2.09-12.3-1.29-15,.52-1.77,2.9-1.52,2.9-.6v11c0,.16.74,2.81.88,3.12,1.6,3.46,7.45,3.68,9.54.31.19-.31,1.07-2.29,1.07-2.43,0-3.29-.47-8.53,0-11.5Z"/>
    <path class="cls-4" d="M213.5,572.5c2.27-5.31,4.03-10.98,6.57-16.18.59-1.2,1.57-4.27,3.13-3.79,1.47.45,7.14,16.87,8.76,19.17-3.86,3.87-3.22-2.84-5.27-4.15-1.57-1.01-7.39-1-8.72.68-1.41,1.78-.45,5.06-4.48,4.27ZM225.5,564l-2.75-5.99c-.56,0-3.09,5.68-2.75,5.99h5.5Z"/>
    <path class="cls-4" d="M506.5,572.49c-6.03,1.12-.66-5.12-8.73-5.51-7.36-.36-4.19,2.63-6.9,5.4-1.09,1.12-2.85.51-2.14-1.89.91-3.07,5.28-13.49,6.89-16.11,2.53-4.12,3.66.57,4.96,3.29.82,1.71,6.37,14.18,5.91,14.83ZM497.99,558c-.84-.86-1.95,2.17-2.14,2.6-.32.69-1.05,2.25-1.16,2.86-.28,1.65,5.1,1.34,5.3.27.06-.3-1.79-5.52-2-5.74Z"/>
    <path class="cls-4" d="M398.5,572.5l7.78-18.96c.38-.71,1.07-1.25,1.9-1,1.02.3,8.58,18.63,8.28,19.66-.36,1.22-1.8.71-2.45.05-1.04-1.06-.92-4.1-3.03-4.97-1.21-.51-5.24-.44-6.51-.04-3.39,1.06-1.34,6.28-5.97,5.27ZM407.99,558c-.88-.84-.84.32-1.04.71-.44.87-2.48,5.26-1.96,5.79,1.05-.1,5.38.45,5.48-.74.03-.31-2.26-5.54-2.48-5.76Z"/>
    <path class="cls-4" d="M101,561c2.03-.16,9.4-10.17,11-8.5s-5.64,6.2-6.52,7.72c-2.77,4.75,6.19,8.08,8.03,11.52-5.55.93-8.18-5.64-12.5-7.75v8.5c0,.19-2.44,1-2.88-1.35-.36-1.94-.47-15.76-.02-17.3.52-1.77,2.9-1.53,2.9-.6v7.75Z"/>
    <path class="cls-4" d="M321.5,553.75c.62-2.22,10.33-1.17,12.5-.74-1.6,3.14-5.17,1.52-7.74,2.01-2.35.45-2.87,4.44-1.64,5.87s7.86-.43,7.38,1.87c-2.65,3.11-8.39-1.31-7.98,4.99.32,4.92,7.75,1.25,10.48,4.02,0,1.25-10.6,1.65-12,.99-.24-.11-1.01-.91-1.01-.99v-18Z"/>
    <path class="cls-4" d="M200.5,553c-.23,3.58-7.95,1.01-8.93,2.57-.18.28-.18,5.07,0,5.36.73,1.17,9.37-.49,7.43,2.56-1.06,1.67-8.17-1.84-7.82,3.68.41,6.31,6.57,1.05,9.81,4.58-.01,1.36-10.17,2.5-11.7-.29-1.25-2.28-1.21-15.09,0-17.42,2.07-3.98,7.81-1.15,11.21-1.04Z"/>
    <path class="cls-4" d="M359.5,555.49c-1.14,1.44-8.67-2.96-8.94,2.26-.16,3.05,7.01,3.06,8.95,5.99,5.31,8.03-9.65,13.33-12.5,4.75,3.27,1.23,11.5,4.15,10.51-2.23-.53-3.39-9.33-1.96-9.73-8.2-.37-5.86,8.83-7.53,11.72-2.58Z"/>
    <path class="cls-4" d="M389.5,553c.24,1.17-.14.8-.64,1.13-1.86,1.2-5.51.6-5.91,1.16-1.48,2.09.92,17.02-1.69,17.19-.14,0-1.27-.74-1.47-1.01-1.45-1.94.67-10.15-.75-13.76-1.1-2.82-4.37-2.54-6.04-4.71h16.5Z"/>
    <path class="cls-4" d="M566.5,553c-.53,3.32-4.69.24-6.53,2.85-2.15,3.04.7,11.96-.54,15.83-.48,1.48-2.92.76-2.92.08v-15c0-3.36-7.22.06-6.5-3.75h16.5Z"/>
  </g>
  <g>
    <g>
      <path class="cls-1" d="M254.99,172.5l-9.25-9.5c-.59.18-.16,1.08,0,1.51,2.45,6.85,6.45,13.17,10.05,19.45l9.71,13.04c-7.92,1.76-14.89-3.99-21-8.24-.4-.28-.97-1.34-1.5-.5,4.48,7.11,10.66,13.1,17.34,18.16,1.8,1.37,4.86,2.75,6.35,4.05,2.07,1.81-3.97,3.27-5.07,3.41-4.06.55-8.22,0-12.24-.51l-10.38-2.62c5.32,5.87,12.31,12.57,19.66,15.84,2.31,1.03,5.75,1.51,7.52,2.42.57.29.35.45.31.99-2.07.7-3.17,2.77-5.46,3.29-3.11.71-7.88.31-11.28.72-19.74,2.41-35.84,9.72-50.52,22.98-3.09,2.79-8.33,9.71-10.98,11.52-.42.29-.49.7-1.25.49-.91-8.13-4.81-15.71-6.76-23.49-10.92-43.58,5.39-95.92,36-128.01,1.06-1.11,5.33-6.01,6.75-5.28,1.02.52,9.31,17.41,10.92,20.12,4.38,7.41,9.39,14.51,14.83,21.17,1.13,1.38,6.12,6.17,6.5,7,1.4,3.14.22,8.62-.24,11.99Z"/>
      <path class="cls-2" d="M398.49,113c.08.07.45,1.3.88,1.86,9.65,12.65,20.24,21.52,26.14,36.87,5.56,14.46,11.17,45.46,5.87,59.89-5.63,15.32-23.75,25.37-38.88,28.86,12.36-14.1,15.75-32.92,15-51.25-.02-.61.38-1.86-.49-1.74.14,12.04-2.29,25.95-8.25,36.51-9.7,17.19-31.22,19.19-48.76,22.99l15.51-7.23c6.16-3.33,16.89-10.52,18.98-17.52.21-.7-.05-.89-.73-.73-8.92,4.54-18.51,8.8-28.01,12-.48.16-1.42.94-1.75.25,9.11-7.3,19.92-14.07,28.01-22.49.86-.9,5.18-5.82,5.48-6.52.27-.61-.11-.93-.74-.74l-24.76,13.75c9.34-9.52,18.6-19.29,26.19-30.31.52-.76,1.39-1.46,1.31-2.44-7.72,6.5-16.01,14.42-25.52,18.23-.63.25-1.93,1.12-2.48.52,9.73-7.78,18.52-17.23,25.21-27.79,1.54-2.44,5.57-8.82,6.28-11.22.19-.65-.1-.98-.73-.73-1.31.51-3.21,2.92-5.01,3.49-.37.08-.34-.51-.24-.74,1.06-2.54,3.74-5.87,5.08-8.92,3.84-8.74,5.71-18.31,5.91-27.84-.52.29-4.26,4.03-3.98,1.77.72-5.85,3.7-12.33,3.48-18.52-.06-.43.93-.3.99-.25ZM406.99,187v-3.49h-.49v3.49h.49Z"/>
      <path class="cls-1" d="M488.99,188c-10.81-14.37-24.17-24.52-42.31-27.44-1.54-.25-3.63.47-4.72-.78-1.01-1.16-2.7-6.85-3.7-8.8-3.84-7.54-9.09-14.53-14.52-20.98-4.89-5.82-11.29-10.21-13.02-17.98-1.15-5.16-1.51-10.3-2.87-15.63-2.12-8.28-5.66-16.14-7.86-24.39,41.03,16.29,74.12,54.28,85.96,96.79,1.69,6.06,3.34,13.01,3.03,19.21Z"/>
      <path class="cls-2" d="M214.5,74.01c5.74,1.1,11.29,2.97,16.99,4.25,14.09,3.15,28.82,4.83,42.72,8.78,1.92.55,11.41,3.1,11.22,5.12-.09.91-8.02,10.33-9.34,12.18-1.6,2.25-3.38,4.85-4.8,7.2-3.02,5-5.24,10.47-8.12,15.42-1.49.44-7.9-4.75-9.41-5.97-8.65-7.03-17.25-17.5-24.25-26.25-5.31-6.65-10.43-13.57-15.01-20.73Z"/>
      <path class="cls-1" d="M317.5,64c-2.69,2.49-6.34,4.07-9.46,6.29-5.05,3.6-4.49,5.98-11.79,5.7-4.55-.18-9.8-1.29-14.48-1.51-4.07-.2-8.2.19-12.27.02-.29-1.15.22-.82.63-1.14,3.8-2.96,11.62-5.01,16.36-6.11,10.12-2.35,20.6-3.38,31.01-3.24Z"/>
      <path class="cls-2" d="M371.01,51c.43.38,1.06.22.96-.71-.32-2.98-2.21-6.24-2.87-9.14-.14-.64-.32-1.53.65-1.14s3.72,4.87,4.46,6.04c8.76,13.71,21.96,47.22,21.31,63.23-.4,9.88-4.37,21.89-9.52,30.22.24.22,5.12-2.52,5.83-2.91.48-.26,4.24-3.31,3.66-1.34-1.86,6.23-10.12,13.31-14.49,18.01.32.65,1.37.04,1.85-.15,3.22-1.27,6.74-3.38,9.4-5.6.37-.08.34.51.24.74-.48,1.18-4.6,5.99-5.74,7.27-2.88,3.24-6.34,6.03-9.25,9.25,1.57.07,3.64-1.24,5.01-1.99,1.8-.99,3.41-2.31,5.24-3.26l.24.74c-5.52,7.2-9.75,15.64-15.09,22.92-13.27,18.09-35,25.54-49.39,42.61-7.35,8.72-11.08,17.95-22.17,23.33-2.34,1.14-12.5,4.47-14.52,3.86-1.75-.52.34-3.84.54-5.34,1.27-9.24-7.56-8.8-13.62-5.64-1.87-.18,1.26-7.02,1.61-8.37,4.05-15.39,3.59-27.98-3.26-42.46-.5-1.06-3.67-5.97-3.6-6.39.14-.78.6-.69,1.25-.26,1.06.69,2.18,2.41,3.24,3.26l6.02,9.98c-4.67-12.95-10.56-25.98-11.5-40-1.42-21.02,9.4-51.73,23.74-67.25.4-.44,2.23-2.52,2.76-1.99-4.97,11.31-8.73,23.79-9.52,36.22-.04.58-.36,2.77.52,2.77,4.37-17.49,13.77-36.36,28.26-47.49,1.09.52-.11,2.74,1.45,2.45.53-.1,6.55-5.23,5.58-1.44-.47,1.82-2.13,4.6-2.75,6.76-2.39,8.23-2.37,15.92-.87,24.31.38,2.13.7,5.47,2.34,6.91-.61-5.36-1.57-10.75-.35-16.12.96-4.21,3.04,2.5,4.35,3.12-4.07-16.99,6.13-33.53,11.51-49.24,5.32-15.52,8.75-31.5,11-47.76l25.5,41.99ZM346.5,25.5c-.19,6.89-1.1,13.83-2.09,20.67-3.06,21.21-13.27,52.22-6.67,72.34,3.88,11.82,10.93,19.59,21.24,7.73,17.44-20.06.98-49.83-5.23-71.24-2.67-9.19-3.69-18.93-6.23-27.77-.2-.68-.06-1.55-1.02-1.73ZM302.49,205c4.53-9.23,14.65-13.72,22.45-19.8,10.22-7.96,17.55-17.19,21.55-29.7-15.91,14.54-42.09,21.17-44.49,46.26-.06.64-.42,3.1.49,3.24Z"/>
    </g>
    <g>
      <path class="cls-2" d="M489.99,259.5c1.14,1.22,1.67,13.04,1.5,15.24-3.28,41.8-57.6,48.42-87.17,61.83-18.22,8.26-37.28,19.98-46.85,38.15-14.11,2.76-28.66,2.64-42.97,1.77-.36-.32,1.72-3.12,2.09-3.66,20.77-30.06,56.75-43.04,90.91-51.35.12-.86-1.18-.53-1.74-.49-4.72.35-9.84,2.04-14.52,2.49-.57.05-2.74.41-2.74-.49,19.68-8.79,41.09-12.61,61.26-20s38.72-16.36,39.78-40.26c.02-.34-1.14-4.95.45-3.25Z"/>
      <path class="cls-2" d="M441.5,287c12.47-5.67,24.52-12.85,34.75-21.99.41,2.55-2.46,6.33-4.05,8.45-19.86,26.72-71.96,36.1-102.59,45.91-20.61,6.6-40.68,14.16-56.37,29.63-.5-.86,1.04-2.25,1.55-2.95,15.87-21.34,45.9-32.68,69.69-42.56l-1.52-.27c-30.75,9.92-82.47,23.39-90.24,60.26-.64,3.01-.43,6.21-1.53,9.06-1.48.39-16.18-3.71-18.35-4.64-4.62-1.97-2.29-6.89-1.1-10.89,8.8-29.72,50.3-54.95,78.25-63.75,25.34-7.98,54.12-10.8,76-26.75-12.19,5.77-25.15,9.36-38.41,11.84-15.31,2.86-31.49,3.24-46.35,7.65-24.27,7.21-50.86,25.59-64.45,47.05-.64,1.02-2.58,5.24-2.8,5.46-.26.25-1.21.24-.95-.7.44-1.61,2.88-5.43,3.87-7.14,18.33-31.68,52.28-48,87.58-53.17.12-.87-1.14-.47-1.74-.5-6.78-.29-16.07,1.02-22.86,2.15-37.31,6.18-71.83,31.99-83.03,68.97-.5,1.65-2.38,10.83-2.84,11.17-.56.42-.99.13-1.54-.01-1.68-.42-7.43-3.65-9.32-4.7s-11.78-6.98-12.05-8.4c2.54-11.58,8.09-22.31,14.98-31.85,26.27-36.35,64.96-56.48,109.22-61.78,33-3.95,96.26-2.17,111.07-39.43.3-.75,1.71-3.72.63-4.13-8.61,19.3-31.31,27.99-50.5,33-.22-1.04.5-1.16,1.15-1.6,2.45-1.65,6.04-2.99,8.81-4.69,21.47-13.25,32.79-35.04,24.55-60.21,9.06,2.63,17.82,8.83,23.01,16.73,8.52,12.98,8.26,31.16,4.12,45.65-5.8,20.28-21.39,35.5-36.63,49.11ZM396.5,266c-.83.04-1.67-.03-2.5,0v.49c1.15.4,1.81-.28,2.5-.49,18.45-.81,46.78-11.8,60.76-23.99,3.95-3.44,8.21-8.17,10.23-13.01-12.75,14.68-30.56,24.11-48.74,30.51-7.34,2.58-14.88,4.15-22.26,6.49ZM435.5,268.5l-15.16,9.08-24.33,12.41c14.61-3.88,28.1-11.71,39.5-21.49ZM367.5,276.51h-2.5v.49h2.5v-.49Z"/>
    </g>
  </g>
</svg>